<?xml version="1.0" encoding="UTF-8" standalone="no"?>
<!-- Created with Inkscape (http://www.inkscape.org/) -->

<svg
   width="8mm"
   height="8mm"
   viewBox="0 0 8 8"
   version="1.1"
   id="svg5"
   inkscape:version="1.1 (c68e22c387, 2021-05-23)"
   sodipodi:docname="logoMenor.svg"
   xmlns:inkscape="http://www.inkscape.org/namespaces/inkscape"
   xmlns:sodipodi="http://sodipodi.sourceforge.net/DTD/sodipodi-0.dtd"
   xmlns="http://www.w3.org/2000/svg"
   xmlns:svg="http://www.w3.org/2000/svg">
  <sodipodi:namedview
     id="namedview7"
     pagecolor="#ffffff"
     bordercolor="#666666"
     borderopacity="1.0"
     inkscape:pageshadow="2"
     inkscape:pageopacity="0.0"
     inkscape:pagecheckerboard="0"
     inkscape:document-units="mm"
     showgrid="false"
     inkscape:zoom="26.821065"
     inkscape:cx="21.792572"
     inkscape:cy="16.330447"
     inkscape:window-width="1920"
     inkscape:window-height="986"
     inkscape:window-x="-11"
     inkscape:window-y="-11"
     inkscape:window-maximized="1"
     inkscape:current-layer="layer1"
     width="209mm" />
  <defs
     id="defs2" />
  <g
     inkscape:label="Camada 1"
     inkscape:groupmode="layer"
     id="layer1">
    <path
       style="fill:#000000;stroke-width:0.264583"
       id="path657"
       d="" />
    <path
       style="fill:#000000;stroke-width:0.264583"
       id="path637"
       d="" />
    <path
       style="fill:#000000;stroke-width:0.264583"
       id="path617"
       d="" />
    <path
       style="fill:#000000;stroke-width:0.264583"
       id="path597"
       d="" />
    <path
       style="fill:#000000;stroke-width:0.264583"
       id="path1323"
       d="" />
    <path
       style="fill:#000000;stroke-width:0.264583"
       id="path1303"
       d="" />
    <path
       style="fill:#000000;stroke-width:0.264583"
       id="path1283"
       d="" />
    <path
       style="fill:#000000;stroke-width:0.264583"
       id="path1227"
       d="" />
    <path
       style="fill:#000000;stroke-width:0.264583"
       id="path1207"
       d="" />
    <g
       id="g28823">
      <path
         style="fill:#e1dcc9;fill-opacity:1;stroke-width:1"
         d="m 117.17343,231.94959 c -1.58648,-0.75054 -3.30489,-2.35882 -3.30489,-3.09309 0,-0.32579 0.74217,-0.38766 4.65025,-0.38766 h 4.65025 l -1.42436,-1.71601 c -3.47571,-4.1874 -5.53366,-9.38635 -6.17146,-15.59082 l -0.18798,-1.82871 3.80571,0.17409 c 2.09315,0.0958 9.72908,0.17453 16.96874,0.17506 l 13.16302,9.7e-4 v 0.79375 c 0,0.43656 0.0298,0.79246 0.0661,0.79089 0.0364,-0.002 0.65061,-0.18017 1.36496,-0.39688 2.81298,-0.85335 4.93355,-0.29287 5.79996,1.53297 0.93309,1.96633 0.25673,4.06777 -2.05209,6.37585 -1.99083,1.99019 -5.7499,4.08858 -8.11095,4.52768 -0.67633,0.12578 -1.08608,0.41068 -1.43139,0.99524 -0.26609,0.45045 -1.12263,1.57206 -1.90344,2.49246 l -1.41963,1.67346 h 4.76926 c 3.51838,0 4.76925,0.0828 4.76925,0.31575 0,0.17366 -0.63311,0.92898 -1.40692,1.67847 -2.36735,2.29296 -1.94688,2.23914 -17.49177,2.2389 l -13.51276,-2.1e-4 z m 34.7357,-13.9121 c 2.61868,-2.4418 3.01212,-3.59285 1.62661,-4.75868 -1.01789,-0.8565 -1.64192,-0.85966 -3.33317,-0.0169 -1.32873,0.66214 -1.3448,0.68518 -1.7991,2.57969 -0.37628,1.56917 -1.28605,4.17437 -2.18583,6.25925 -0.25508,0.59107 3.81999,-2.31829 5.69149,-4.06338 z m -22.73066,-9.85803 c 0.50862,-0.9782 0.3474,-3.11062 -0.38047,-5.03244 -1.86506,-4.92438 -1.81918,-4.71763 -1.33081,-5.9964 0.24381,-0.6384 0.67713,-1.37236 0.96295,-1.63101 0.50645,-0.45834 0.51965,-0.44823 0.51965,0.39787 0,0.54589 0.51364,1.81336 1.38369,3.41444 1.22821,2.26018 1.38418,2.72467 1.38811,4.13379 0.003,1.24692 -0.14607,1.84293 -0.69705,2.77813 -0.76868,1.30469 -2.41622,3.03216 -1.84607,1.93562 z m 4.61383,-0.22497 c 1.05882,-2.10534 0.70653,-4.60965 -1.37238,-9.75593 -0.72337,-1.79067 -1.39749,-3.69434 -1.49806,-4.23039 -0.26482,-1.41163 0.32175,-3.17094 1.48905,-4.46612 l 1.00724,-1.11759 -0.14344,0.93863 c -0.17335,1.13437 0.24003,2.19062 1.99735,5.10351 1.78792,2.96362 2.50393,5.16302 2.32731,7.14885 -0.18018,2.02578 -1.3901,4.46125 -2.97644,5.9913 -1.12608,1.08613 -1.19898,1.12016 -0.83063,0.38774 z"
         id="path2259" />
      <path
         style="fill:#d9d2bc;fill-opacity:1;stroke-width:1"
         d="m 117.80409,232.1987 c -0.67311,-0.26329 -1.50328,-0.67444 -1.84481,-0.91366 -0.57884,-0.40543 0.53671,-0.43438 16.43737,-0.42654 18.46045,0.009 18.17416,-0.0166 14.61686,1.31432 -1.34777,0.50426 -2.0444,0.52876 -14.7002,0.51698 -12.17362,-0.0114 -13.38781,-0.0524 -14.50922,-0.4911 z m 4.49217,-4.98663 c -3.63331,-3.77474 -5.91019,-9.37572 -6.66854,-16.40417 l -0.12132,-1.12448 2.55451,0.0224 2.55451,0.0223 1.991,2.42505 c 4.94055,6.01759 11.66709,9.52134 19.77098,10.29837 1.78263,0.17092 3.24114,0.41065 3.24114,0.53272 0,0.36794 -1.98791,3.15873 -3.10575,4.3601 l -1.04629,1.12448 h -8.98028 -8.98028 z m 7.04787,-19.36119 c 0.47676,-1.52963 0.20484,-3.04331 -1.15736,-6.44258 -1.13156,-2.8237 -1.03047,-4.85329 0.29657,-5.95464 0.29378,-0.24381 0.36696,-0.13251 0.38742,0.58918 0.0152,0.53622 0.46499,1.63002 1.13198,2.75273 1.38695,2.33458 1.92999,4.07025 1.70951,5.46389 -0.19144,1.21006 -1.10839,2.92872 -1.97645,3.70449 l -0.59175,0.52884 z m 4.78872,-0.54871 c 0.72018,-2.07983 0.28045,-4.30993 -1.88002,-9.53473 -0.96578,-2.33561 -1.25599,-3.36757 -1.26215,-4.48819 -0.009,-1.60975 0.63505,-3.1542 1.74809,-4.19289 l 0.66548,-0.62102 -0.13904,1.03663 c -0.15024,1.12013 0.20214,1.96908 2.28174,5.49707 1.50113,2.54664 2.24744,5.06717 2.02295,6.83208 -0.23038,1.81112 -1.23656,3.83856 -2.67793,5.39598 l -1.17139,1.26569 z"
         id="path2257" />
      <path
         style="fill:#c6bca0;fill-opacity:1;stroke-width:1"
         d="m 118.26515,232.18248 c -0.85609,-0.27673 -1.68357,-0.63019 -1.83885,-0.78548 -0.20006,-0.20005 4.49424,-0.27601 16.1086,-0.26065 l 16.39094,0.0217 -1.45521,0.70592 -1.45521,0.70593 -13.09688,0.0579 c -12.2406,0.0541 -13.19864,0.025 -14.65339,-0.44527 z m 11.25591,-24.62275 c 0.40186,-1.15279 0.015,-3.07304 -1.22638,-6.08704 -1.07999,-2.62219 -1.16549,-3.91735 -0.34614,-5.24309 l 0.58625,-0.94856 0.16785,0.82072 c 0.0923,0.4514 0.5026,1.39999 0.91173,2.10797 1.55084,2.68368 1.83314,3.41695 1.93573,5.02807 0.0893,1.40181 -2.9e-4,1.82798 -0.62549,2.97668 -0.40132,0.73735 -0.95064,1.54062 -1.22073,1.78504 -0.47329,0.42833 -0.47991,0.41242 -0.18282,-0.43979 z m 4.59157,-0.0506 c 0.81759,-2.04431 0.40325,-4.35145 -1.73289,-9.64911 -1.76271,-4.37158 -1.77047,-6.01873 -0.039,-8.28374 l 0.7088,-0.92722 0.17005,1.38793 c 0.12624,1.03035 0.58063,2.08693 1.76367,4.10104 1.94664,3.31414 2.43327,4.7186 2.433,7.02184 -2.5e-4,2.14453 -0.91316,4.29679 -2.60534,6.14232 l -1.09169,1.19062 z"
         id="path2253" />
      <path
         style="fill:#a5a5a5;fill-opacity:1;stroke-width:1"
         d="m 129.59162,206.30754 c -0.016,-1.45492 -0.22319,-2.28411 -1.12448,-4.50079 -1.26015,-3.09925 -1.33517,-3.87028 -0.52825,-5.42918 l 0.57659,-1.11394 0.21262,0.99026 c 0.11695,0.54464 0.52879,1.4911 0.91521,2.10323 2.41917,3.83221 2.55231,6.54568 0.44852,9.14104 -0.47579,0.58696 -0.48077,0.57508 -0.50021,-1.19062 z m 4.5308,1.39151 c 0.3827,-1.07653 0.43616,-3.30882 0.11199,-4.67662 -0.18363,-0.77484 -0.97155,-3.03361 -1.75092,-5.01948 -1.64483,-4.19113 -1.75426,-5.26599 -0.74274,-7.29583 0.37085,-0.74421 0.8471,-1.49654 1.05833,-1.67185 0.3257,-0.2703 0.3842,-0.14295 0.38508,0.83815 7.9e-4,0.93388 0.3322,1.74338 1.71908,4.19958 0.94493,1.67349 1.90984,3.61821 2.14424,4.32159 0.6198,1.85984 0.41746,4.43126 -0.49312,6.26678 -0.72533,1.46209 -2.78752,4.03792 -2.43194,3.03768 z"
         id="path2251" />
      <path
         style="fill:#949494;fill-opacity:1;stroke-width:1"
         d="m 129.59363,206.15624 c -0.0135,-1.25123 -0.2544,-2.21888 -1.03207,-4.14574 -1.28853,-3.19262 -1.41957,-4.32857 -0.64096,-5.55625 l 0.5873,-0.92604 0.23745,0.89437 c 0.13059,0.4919 0.7762,1.82161 1.43469,2.9549 1.52388,2.62268 1.80259,4.57692 0.91442,6.41165 -0.31379,0.64819 -0.77587,1.3632 -1.02686,1.58891 -0.42697,0.38397 -0.45748,0.3053 -0.47397,-1.2218 z m 4.85332,-0.28854 c 0.14435,-2.24921 -0.18356,-3.54928 -2.08414,-8.26297 -1.43689,-3.5637 -1.59263,-4.84559 -0.79874,-6.57444 0.50616,-1.10226 1.87663,-2.57724 1.54237,-1.66 -0.26972,0.74018 0.43382,2.54805 2.03601,5.23188 0.8253,1.38245 1.68747,3.15392 1.91593,3.9366 0.82301,2.81949 0.14203,5.801 -1.87688,8.21748 l -0.85743,1.02628 z"
         id="path2249" />
    </g>
    <g
       id="g14605"
       style="fill:#cccccc">
      <path
         style="fill:#cccccc;fill-opacity:1;stroke-width:0.999995"
         d="M 0.93422525,7.5071976 C 0.66909127,7.3817666 0.38190903,7.1129894 0.38190903,6.9902775 c 0,-0.054446 0.12403212,-0.064786 0.77715397,-0.064786 H 1.936217 L 1.6981767,6.6387103 C 1.1173129,5.9389082 0.77338641,5.0700549 0.6667967,4.0331583 L 0.63538131,3.7275426 1.271395,3.7566367 c 0.3498092,0.01601 1.6259327,0.029168 2.8358313,0.029256 l 2.1998159,1.621e-4 V 3.918707 c 0,0.072958 0.00498,0.1324366 0.011047,0.1321742 0.00608,-3.342e-4 0.1087305,-0.03011 0.2281133,-0.066327 C 7.01631,3.8419419 7.3707016,3.9356098 7.5154968,4.2407458 7.6714357,4.5693607 7.5584018,4.9205553 7.1725497,5.3062837 6.8398404,5.6388861 6.2116212,5.9895709 5.8170403,6.0629537 5.7040114,6.0839742 5.6355337,6.1315869 5.5778251,6.2292791 5.5333559,6.3045587 5.3902102,6.4920032 5.2597205,6.6458213 L 5.0224706,6.9254914 h 0.7970431 c 0.5879949,0 0.7970414,0.013838 0.7970414,0.052768 0,0.029022 -0.1058059,0.155252 -0.2351257,0.2805074 C 5.9857957,7.6419689 6.056065,7.6329744 3.4581888,7.6329343 L 1.1999241,7.6328992 Z M 6.739287,5.1821947 C 7.1769232,4.7741189 7.2426753,4.5817544 7.0111276,4.3869198 6.8410169,4.2437808 6.7367284,4.2432526 6.4540852,4.3840955 6.2320266,4.4947529 6.229341,4.4986034 6.153418,4.8152156 6.0905337,5.0774567 5.9384921,5.5128401 5.7881201,5.8612672 5.7454909,5.9600473 6.4265203,5.4738324 6.739287,5.1821914 Z M 2.9405185,3.5347118 C 3.0255195,3.3712341 2.9985763,3.0148622 2.876934,2.6936858 2.5652434,1.870719 2.5729109,1.9052712 2.6545278,1.691562 c 0.040746,-0.10669 0.1131626,-0.22935 0.1609291,-0.2725759 0.084638,-0.076598 0.086844,-0.074909 0.086844,0.066492 0,0.09123 0.08584,0.3030504 0.2312436,0.5706244 C 3.3388044,2.4338262 3.3648702,2.5114522 3.365527,2.7469456 3.3660284,2.955332 3.3411156,3.0549377 3.2490354,3.2112292 3.1205729,3.4292702 2.8452345,3.7179666 2.9405185,3.5347118 Z M 3.7115859,3.4971146 C 3.8885369,3.1452683 3.8296619,2.7267457 3.4822325,1.8666947 3.3613423,1.5674363 3.2486827,1.2492932 3.2318754,1.1597081 3.1876184,0.92379519 3.2856465,0.6297777 3.4807268,0.41332604 L 3.6490576,0.22655339 3.6250858,0.38341808 c -0.02897,0.18957695 0.040114,0.36609841 0.333799,0.85290322 0.2987988,0.4952829 0.418459,0.8628486 0.3889421,1.1947223 -0.030112,0.3385502 -0.2323147,0.7455682 -0.4974253,1.0012715 -0.1881915,0.1815151 -0.2003747,0.1872022 -0.1388157,0.0648 z"
         id="path2259-8" />
      <path
         style="fill:#cccccc;fill-opacity:1;stroke-width:0.999995"
         d="M 1.0396217,7.548829 C 0.92713097,7.5048278 0.7883922,7.436116 0.7313154,7.3961374 0.6345791,7.3283814 0.8210109,7.3235434 3.4783436,7.3248534 c 3.0851272,0.0015 3.0372822,-0.00277 2.442783,0.2196504 C 5.695886,7.6287763 5.5794646,7.6328708 3.4644158,7.6309021 1.4299493,7.6289969 1.2270328,7.622145 1.0396217,7.548829 Z M 1.7903573,6.7154589 C 1.1831552,6.0846209 0.80264093,5.14858 0.67590479,3.9739791 L 0.65562969,3.786055 1.0825417,3.789795 1.5094538,3.793525 1.8421915,4.1988015 c 0.8256692,1.0056651 1.9498147,1.591215 3.3041442,1.721073 0.2979147,0.028564 0.5416622,0.068628 0.5416622,0.089029 0,0.06149 -0.3322213,0.5278899 -0.5190357,0.7286639 l -0.174857,0.187924 H 3.4933126 1.9925201 Z M 2.9682037,3.4797992 C 3.0478803,3.2241661 3.0024368,2.9711985 2.7747847,2.4031094 2.5856773,1.9312101 2.6025716,1.5920231 2.8243477,1.4079645 c 0.049097,-0.040746 0.061327,-0.022145 0.064746,0.098464 0.00254,0.089614 0.07771,0.2724104 0.1891775,0.4600388 C 3.3100596,2.3566247 3.4008129,2.6466914 3.3639661,2.8795978 3.3319725,3.0818242 3.1787309,3.3690482 3.03366,3.4986956 l -0.098894,0.08838 z M 3.768499,3.3880983 C 3.8888561,3.0405152 3.815368,2.6678189 3.4543083,1.7946455 3.2929063,1.4043163 3.2444061,1.2318542 3.2433766,1.0445751 3.2418726,0.77555226 3.3495068,0.51744237 3.535519,0.34385555 L 3.6467347,0.24007012 3.6234982,0.41331267 C 3.5983899,0.60050982 3.65728,0.74238711 4.0048246,1.331988 4.2556948,1.7575848 4.3804188,2.1788181 4.3429019,2.4737714 4.3044006,2.7764475 4.1362468,3.1152751 3.8953638,3.3755525 L 3.6996,3.5870758 Z"
         id="path2257-5" />
      <path
         id="path2253-3"
         style="fill:#cccccc;fill-opacity:1;stroke-width:0.999995"
         d="m 3.6018365,0.241057 -0.00517,0.006718 c 0.00188,-2.1265e-4 0.00379,-3.0956e-4 0.00568,-5.1594e-4 z M 2.8416762,7.3413987 c -1.4500241,0.00116 -2.04721961,0.014155 -2.01796463,0.043408 0.0259503,0.025953 0.16440414,0.085011 0.30747463,0.1312582 0.2431193,0.078594 0.4032859,0.083454 2.4489463,0.074414 l 2.1884968,-0.0093 0.243396,-0.1183391 0.2428793,-0.1178221 -2.738851,-0.00362 c -0.2426253,-3.175e-4 -0.4672312,-1.667e-4 -0.6743774,1e-6 z" />
    </g>
    <g
       id="g2219"
       transform="translate(-18.03974,-7.772193)">
      <path
         style="fill:#d0d0d0;fill-opacity:1;stroke-width:1"
         d="m 137.9338,126.72913 c -0.67311,-0.26329 -1.50328,-0.67444 -1.84481,-0.91367 -0.57884,-0.40542 0.53671,-0.43437 16.43737,-0.42653 18.46045,0.009 18.17416,-0.0166 14.61686,1.31432 -1.34777,0.50426 -2.0444,0.52876 -14.7002,0.51697 -12.17362,-0.0113 -13.38781,-0.0524 -14.50922,-0.49109 z m 4.12928,-5.37877 c -3.19541,-3.55407 -5.70784,-9.73768 -6.12951,-15.08599 l -0.16166,-2.05052 h 2.38906 2.38906 l 0.74616,0.99219 c 3.77739,5.02287 8.68904,8.65361 14.21694,10.50926 2.00779,0.674 5.30083,1.29692 8.45399,1.5992 l 1.79074,0.17166 -0.59567,1.05985 c -0.32761,0.58292 -1.23273,1.76384 -2.01137,2.62426 l -1.41572,1.56441 h -9.21369 -9.2137 z m 7.29202,-18.46117 c -0.006,-0.0737 0.10377,-0.53428 0.24407,-1.02347 0.32967,-1.14947 -0.0474,-2.942864 -1.21372,-5.772831 -1.2082,-2.931553 -1.13212,-4.980325 0.22682,-6.108144 0.29298,-0.243152 0.3614,-0.135771 0.3614,0.567163 0,0.558248 0.43546,1.59883 1.22255,2.921416 1.63151,2.741493 1.97052,4.176036 1.42794,6.042428 -0.23445,0.806508 -0.80903,1.866148 -1.33485,2.461748 -0.50776,0.57515 -0.92815,0.98541 -0.93421,0.91169 z m 4.94871,-1.29023 c 0.61452,-1.921659 0.1869,-4.135332 -1.71017,-8.853085 -1.16218,-2.890204 -1.50229,-4.048403 -1.48931,-5.071658 0.0188,-1.477868 0.71867,-3.081754 1.77509,-4.0677 l 0.67641,-0.631291 -0.15541,0.95765 c -0.18758,1.155931 0.11169,1.930869 1.94603,5.039136 1.43532,2.432147 2.06307,4.001333 2.35303,5.881894 0.31883,2.067862 -1.09659,5.490934 -3.04062,7.353434 l -0.79236,0.75913 z"
         id="path2227" />
      <path
         style="fill:#b9b9b9;fill-opacity:1;stroke-width:1"
         d="m 138.3294,126.7296 c -2.95709,-1.0753 -3.04195,-1.069 14.18969,-1.0544 l 16.53646,0.014 -1.45521,0.70556 -1.45521,0.70555 -13.22917,0.0614 c -12.3396,0.0573 -13.32044,0.0283 -14.58656,-0.43215 z m 11.31407,-24.61851 c 0.40027,-1.14822 0.1303,-2.541932 -1.10382,-5.698402 -1.18788,-3.038205 -1.29684,-4.300879 -0.48457,-5.615158 l 0.56307,-0.91107 0.44884,1.325852 c 0.24687,0.729218 0.77678,1.821383 1.17758,2.427032 1.70303,2.573453 1.95084,5.116114 0.70954,7.280216 -0.42145,0.73475 -0.95455,1.49217 -1.18467,1.68316 -0.37514,0.31133 -0.38817,0.2605 -0.12597,-0.49163 z m 4.59887,-0.0716 c 0.81759,-2.044297 0.40325,-4.351444 -1.73289,-9.649104 -1.76271,-4.371581 -1.77047,-6.018724 -0.039,-8.283737 l 0.7088,-0.927215 0.17005,1.387927 c 0.12624,1.030344 0.58063,2.086931 1.76367,4.101042 1.93818,3.299736 2.48391,4.846841 2.47754,7.02372 -0.006,2.035293 -1.00398,4.349217 -2.64847,6.140437 l -1.0931,1.19062 z"
         id="path2225" />
      <path
         style="fill:#a3a3a3;fill-opacity:1;stroke-width:1"
         d="m 149.72133,100.83797 c -0.016,-1.454921 -0.22319,-2.284107 -1.12448,-4.500793 -1.27659,-3.139683 -1.34928,-4.025183 -0.45029,-5.484786 0.59559,-0.967005 0.65256,-1.0009 0.6601,-0.392783 0.005,0.366053 0.30984,1.19949 0.67843,1.852083 1.72017,3.045546 2.2398,4.367637 2.23423,5.68445 -0.006,1.332706 -0.59453,2.918139 -1.49778,4.032449 -0.47579,0.58695 -0.48077,0.57508 -0.50021,-1.19062 z m 4.5432,1.3915 c 0.38106,-1.00569 0.42878,-3.161789 0.10226,-4.620945 -0.18023,-0.805457 -0.96735,-3.089274 -1.74916,-5.075148 -1.64988,-4.190901 -1.75976,-5.263827 -0.74717,-7.295828 0.37085,-0.744213 0.8471,-1.496543 1.05833,-1.671846 0.3257,-0.270304 0.3842,-0.142958 0.38508,0.838145 7.9e-4,0.935418 0.33109,1.739335 1.7252,4.199584 0.9483,1.67349 1.91323,3.683086 2.1443,4.465769 0.58837,1.992971 0.39779,4.314518 -0.50327,6.130707 -0.70733,1.425702 -2.80445,4.055862 -2.41557,3.029562 z"
         id="path2223" />
      <path
         style="fill:#8c8c8c;fill-opacity:1;stroke-width:1"
         d="m 149.71822,100.55105 c -0.0185,-1.434291 -0.23236,-2.27238 -1.1522,-4.515608 -1.21507,-2.963191 -1.28105,-3.899709 -0.37182,-5.277182 l 0.46179,-0.699619 0.18042,0.870048 c 0.0992,0.478527 0.61383,1.572238 1.14356,2.43047 1.8691,3.028189 2.15397,4.807803 1.12343,7.018231 -1.02457,2.1976 -1.3585,2.23947 -1.38518,0.17366 z m 4.86883,-0.0763 c 0.15421,-2.131915 -0.26377,-3.886296 -1.84739,-7.754015 -1.54798,-3.780663 -1.79676,-5.229835 -1.1766,-6.853717 0.43352,-1.135145 2.04926,-3.018305 1.65728,-1.931576 -0.29194,0.809393 0.26235,2.283492 1.805,4.800312 2.78766,4.548029 3.18681,7.440431 1.47102,10.659586 -0.46831,0.87863 -1.11588,1.84592 -1.43905,2.14952 l -0.58759,0.55201 z"
         id="path2221" />
    </g>
    <path
       style="fill:#000000;stroke-width:1"
       id="path2181"
       d="" />
    <path
       style="fill:#000000;stroke-width:1"
       id="path2123"
       d="" />
    <path
       style="fill:none;stroke:#afa385;stroke-width:0.264583"
       d="m 146.77858,132.17873 c -1.07135,4.5 3.5216,8.12609 2.83395,13.22916 -0.2278,1.69238 -0.61224,3.19397 -1.77562,4.7625 m -5.29166,-12.17083 c -0.47977,2.0161 1.35876,4.46884 1.89455,7.14375 0.35885,1.79168 -0.16158,3.5021 -1.1008,5.02708 m -13.22917,23.01875 c 5.78424,1.42505 12.82888,0.79375 19.05,0.79375 4.67678,0 9.14956,0.3302 13.49375,-0.79375"
       id="path1555" />
    <path
       style="fill:#afa385;stroke:none;stroke-width:0.264583"
       d="m 135.03301,75.615111 c -5.20522,6.126982 3.43324,12.725188 0.79375,19.579166 7.28636,-5.241448 1.7661,-13.535263 -0.79375,-19.579166 m -4.49791,6.614583 c -2.86684,4.406794 2.26642,8.317283 0.79375,12.964583 4.56803,-3.527822 1.33863,-9.047242 -0.79375,-12.964583 m -12.43542,35.718746 v 0.26459 c 5.95291,2.30902 13.00038,1.32291 19.31458,1.32291 4.63894,0 9.13951,0.46302 13.49375,-1.32291 -2.65297,-1.11337 -7.17126,-0.26459 -10.05416,-0.26459 z"
       id="path1535" />
    <path
       style="fill:#000000;stroke-width:0.264583"
       id="path1515"
       d="" />
    <path
       style="fill:#000000;stroke-width:0.264583"
       d="m 173.93944,118.45157 c -1.36724,-0.49241 -2.85511,-1.3389 -2.67316,-1.52085 0.0551,-0.0551 0.80299,0.22887 1.6619,0.63115 l 1.56164,0.73141 h 14.02292 14.02292 l 1.42568,-0.73508 c 0.78413,-0.40429 1.47907,-0.6817 1.54431,-0.61645 0.20572,0.20572 -1.12477,0.95062 -2.66455,1.49181 -1.3997,0.49196 -2.21388,0.52065 -14.52019,0.51163 -11.9519,-0.009 -13.14925,-0.0498 -14.38147,-0.49362 z m 3.55146,-5.80608 c -1.09491,-1.22181 -3.18379,-4.60324 -3.53927,-5.72929 -0.0919,-0.29104 0.23201,0.18773 0.71976,1.06394 1.05573,1.89655 1.8086,3.0004 3.19933,4.69075 1.34697,1.63716 1.09497,1.62032 -0.37982,-0.0254 z m 21.66167,-0.26121 c 0.69653,-0.84886 1.54353,-1.89066 1.88221,-2.31511 l 0.61579,-0.77172 -0.4569,0.79375 c -0.62873,1.09223 -2.84455,3.83426 -3.09943,3.83547 -0.11445,5.3e-4 0.3618,-0.69353 1.05833,-1.54239 z m -25.6884,-6.53664 c -0.25531,-0.66535 -0.17999,-0.83703 0.13191,-0.30066 0.15443,0.26558 0.22505,0.5386 0.15693,0.60672 -0.0681,0.0681 -0.1981,-0.0696 -0.28884,-0.30606 z m 11.82664,-11.680761 c -0.228,-0.08362 -0.23871,-0.323102 -0.04,-0.893226 0.3383,-0.970461 -0.0313,-2.629037 -1.27073,-5.702845 -1.07006,-2.65371 -1.1514,-4.137328 -0.29603,-5.399772 0.80955,-1.194815 1.15724,-1.238418 1.33112,-0.166929 0.0807,0.497597 0.71929,1.889993 1.41899,3.094213 1.11384,1.916964 1.28484,2.413411 1.37384,3.988469 0.0812,1.436262 -0.0114,2.032512 -0.45906,2.957251 -0.63159,1.30468 -1.59097,2.294203 -2.05817,2.122839 z m 1.64571,-2.5827 c 0.6784,-1.623644 0.49882,-3.306539 -0.56979,-5.339772 -0.52546,-0.999785 -1.219,-2.327589 -1.5412,-2.950675 l -0.58582,-1.132884 -0.31088,0.682312 c -0.51572,1.131886 -0.36236,2.106005 0.77957,4.951575 0.78257,1.950108 1.10005,3.13631 1.12448,4.201394 0.0296,1.292782 0.0781,1.421371 0.37603,0.997503 0.18811,-0.267627 0.51553,-0.901881 0.72761,-1.409453 z m 2.91074,2.518509 c -0.0836,-0.135191 -0.009,-0.780928 0.16614,-1.43497 0.45595,-1.70473 -0.0275,-3.970223 -1.77823,-8.332693 -1.98259,-4.940239 -1.96257,-6.905977 0.0927,-9.10268 0.37442,-0.400183 0.77754,-0.727605 0.89584,-0.727605 0.11829,0 0.21693,0.506016 0.21918,1.12448 0.003,0.819948 0.28967,1.626059 1.05854,2.976562 2.95111,5.183544 3.62459,7.25575 3.16015,9.723438 -0.34053,1.809294 -1.32971,3.786904 -2.51449,5.027083 -1.03439,1.082748 -1.07686,1.107135 -1.29982,0.746385 z m 2.77014,-4.190238 c 0.68323,-1.826094 0.68119,-4.129732 -0.005,-5.93893 -0.29195,-0.769443 -1.24445,-2.64727 -2.11667,-4.172948 -0.90913,-1.590247 -1.58586,-3.092885 -1.58586,-3.521344 0,-0.944982 -0.37829,-0.726235 -1.06211,0.614174 -0.86637,1.698227 -0.69492,3.056205 0.89607,7.097533 1.64672,4.182847 2.11935,6.050646 1.97867,7.819496 l -0.10086,1.268053 0.73524,-0.880696 c 0.40438,-0.484382 0.97173,-1.512784 1.26078,-2.285338 z"
       id="path1475" />
    <path
       style="fill:#000000;stroke-width:0.264583"
       id="path1455"
       d="" />
    <path
       style="fill:#000000;stroke-width:0.264583"
       id="path1435"
       d="" />
    <path
       style="fill:none;stroke:#000000;stroke-width:0.264583px;stroke-linecap:butt;stroke-linejoin:miter;stroke-opacity:1"
       d="M 137.94776,114.5195 Z"
       id="path1710" />
    <g
       id="g12948"
       transform="translate(-14.261131,-23.256613)">
      <g
         id="g28823-7-5"
         transform="matrix(0.16712091,0,0,0.16712091,169.40115,192.99191)"
         style="stroke-width:5.98366"
         inkscape:export-filename="C:\projects\gitHub\apedrina.github.io\img\coffeCup.png"
         inkscape:export-xdpi="96"
         inkscape:export-ydpi="96">
        <path
           style="fill:#e1dcc9;fill-opacity:1;stroke-width:5.98366"
           d="m 117.17343,231.94959 c -1.58648,-0.75054 -3.30489,-2.35882 -3.30489,-3.09309 0,-0.32579 0.74217,-0.38766 4.65025,-0.38766 h 4.65025 l -1.42436,-1.71601 c -3.47571,-4.1874 -5.53366,-9.38635 -6.17146,-15.59082 l -0.18798,-1.82871 3.80571,0.17409 c 2.09315,0.0958 9.72908,0.17453 16.96874,0.17506 l 13.16302,9.7e-4 v 0.79375 c 0,0.43656 0.0298,0.79246 0.0661,0.79089 0.0364,-0.002 0.65061,-0.18017 1.36496,-0.39688 2.81298,-0.85335 4.93355,-0.29287 5.79996,1.53297 0.93309,1.96633 0.25673,4.06777 -2.05209,6.37585 -1.99083,1.99019 -5.7499,4.08858 -8.11095,4.52768 -0.67633,0.12578 -1.08608,0.41068 -1.43139,0.99524 -0.26609,0.45045 -1.12263,1.57206 -1.90344,2.49246 l -1.41963,1.67346 h 4.76926 c 3.51838,0 4.76925,0.0828 4.76925,0.31575 0,0.17366 -0.63311,0.92898 -1.40692,1.67847 -2.36735,2.29296 -1.94688,2.23914 -17.49177,2.2389 l -13.51276,-2.1e-4 z m 34.7357,-13.9121 c 2.61868,-2.4418 3.01212,-3.59285 1.62661,-4.75868 -1.01789,-0.8565 -1.64192,-0.85966 -3.33317,-0.0169 -1.32873,0.66214 -1.3448,0.68518 -1.7991,2.57969 -0.37628,1.56917 -1.28605,4.17437 -2.18583,6.25925 -0.25508,0.59107 3.81999,-2.31829 5.69149,-4.06338 z m -22.73066,-9.85803 c 0.50862,-0.9782 0.3474,-3.11062 -0.38047,-5.03244 -1.86506,-4.92438 -1.81918,-4.71763 -1.33081,-5.9964 0.24381,-0.6384 0.67713,-1.37236 0.96295,-1.63101 0.50645,-0.45834 0.51965,-0.44823 0.51965,0.39787 0,0.54589 0.51364,1.81336 1.38369,3.41444 1.22821,2.26018 1.38418,2.72467 1.38811,4.13379 0.003,1.24692 -0.14607,1.84293 -0.69705,2.77813 -0.76868,1.30469 -2.41622,3.03216 -1.84607,1.93562 z m 4.61383,-0.22497 c 1.05882,-2.10534 0.70653,-4.60965 -1.37238,-9.75593 -0.72337,-1.79067 -1.39749,-3.69434 -1.49806,-4.23039 -0.26482,-1.41163 0.32175,-3.17094 1.48905,-4.46612 l 1.00724,-1.11759 -0.14344,0.93863 c -0.17335,1.13437 0.24003,2.19062 1.99735,5.10351 1.78792,2.96362 2.50393,5.16302 2.32731,7.14885 -0.18018,2.02578 -1.3901,4.46125 -2.97644,5.9913 -1.12608,1.08613 -1.19898,1.12016 -0.83063,0.38774 z"
           id="path2259-8-7" />
        <path
           style="fill:#d9d2bc;fill-opacity:1;stroke-width:5.98366"
           d="m 117.80409,232.1987 c -0.67311,-0.26329 -1.50328,-0.67444 -1.84481,-0.91366 -0.57884,-0.40543 0.53671,-0.43438 16.43737,-0.42654 18.46045,0.009 18.17416,-0.0166 14.61686,1.31432 -1.34777,0.50426 -2.0444,0.52876 -14.7002,0.51698 -12.17362,-0.0114 -13.38781,-0.0524 -14.50922,-0.4911 z m 4.49217,-4.98663 c -3.63331,-3.77474 -5.91019,-9.37572 -6.66854,-16.40417 l -0.12132,-1.12448 2.55451,0.0224 2.55451,0.0223 1.991,2.42505 c 4.94055,6.01759 11.66709,9.52134 19.77098,10.29837 1.78263,0.17092 3.24114,0.41065 3.24114,0.53272 0,0.36794 -1.98791,3.15873 -3.10575,4.3601 l -1.04629,1.12448 h -8.98028 -8.98028 z m 7.04787,-19.36119 c 0.47676,-1.52963 0.20484,-3.04331 -1.15736,-6.44258 -1.13156,-2.8237 -1.03047,-4.85329 0.29657,-5.95464 0.29378,-0.24381 0.36696,-0.13251 0.38742,0.58918 0.0152,0.53622 0.46499,1.63002 1.13198,2.75273 1.38695,2.33458 1.92999,4.07025 1.70951,5.46389 -0.19144,1.21006 -1.10839,2.92872 -1.97645,3.70449 l -0.59175,0.52884 z m 4.78872,-0.54871 c 0.72018,-2.07983 0.28045,-4.30993 -1.88002,-9.53473 -0.96578,-2.33561 -1.25599,-3.36757 -1.26215,-4.48819 -0.009,-1.60975 0.63505,-3.1542 1.74809,-4.19289 l 0.66548,-0.62102 -0.13904,1.03663 c -0.15024,1.12013 0.20214,1.96908 2.28174,5.49707 1.50113,2.54664 2.24744,5.06717 2.02295,6.83208 -0.23038,1.81112 -1.23656,3.83856 -2.67793,5.39598 l -1.17139,1.26569 z"
           id="path2257-5-7" />
        <path
           style="fill:#c6bca0;fill-opacity:1;stroke-width:5.98366"
           d="m 118.26515,232.18248 c -0.85609,-0.27673 -1.68357,-0.63019 -1.83885,-0.78548 -0.20006,-0.20005 4.49424,-0.27601 16.1086,-0.26065 l 16.39094,0.0217 -1.45521,0.70592 -1.45521,0.70593 -13.09688,0.0579 c -12.2406,0.0541 -13.19864,0.025 -14.65339,-0.44527 z m 11.25591,-24.62275 c 0.40186,-1.15279 0.015,-3.07304 -1.22638,-6.08704 -1.07999,-2.62219 -1.16549,-3.91735 -0.34614,-5.24309 l 0.58625,-0.94856 0.16785,0.82072 c 0.0923,0.4514 0.5026,1.39999 0.91173,2.10797 1.55084,2.68368 1.83314,3.41695 1.93573,5.02807 0.0893,1.40181 -2.9e-4,1.82798 -0.62549,2.97668 -0.40132,0.73735 -0.95064,1.54062 -1.22073,1.78504 -0.47329,0.42833 -0.47991,0.41242 -0.18282,-0.43979 z m 4.59157,-0.0506 c 0.81759,-2.04431 0.40325,-4.35145 -1.73289,-9.64911 -1.76271,-4.37158 -1.77047,-6.01873 -0.039,-8.28374 l 0.7088,-0.92722 0.17005,1.38793 c 0.12624,1.03035 0.58063,2.08693 1.76367,4.10104 1.94664,3.31414 2.43327,4.7186 2.433,7.02184 -2.5e-4,2.14453 -0.91316,4.29679 -2.60534,6.14232 l -1.09169,1.19062 z"
           id="path2253-3-8" />
        <path
           style="fill:#a5a5a5;fill-opacity:1;stroke-width:5.98366"
           d="m 129.59162,206.30754 c -0.016,-1.45492 -0.22319,-2.28411 -1.12448,-4.50079 -1.26015,-3.09925 -1.33517,-3.87028 -0.52825,-5.42918 l 0.57659,-1.11394 0.21262,0.99026 c 0.11695,0.54464 0.52879,1.4911 0.91521,2.10323 2.41917,3.83221 2.55231,6.54568 0.44852,9.14104 -0.47579,0.58696 -0.48077,0.57508 -0.50021,-1.19062 z m 4.5308,1.39151 c 0.3827,-1.07653 0.43616,-3.30882 0.11199,-4.67662 -0.18363,-0.77484 -0.97155,-3.03361 -1.75092,-5.01948 -1.64483,-4.19113 -1.75426,-5.26599 -0.74274,-7.29583 0.37085,-0.74421 0.8471,-1.49654 1.05833,-1.67185 0.3257,-0.2703 0.3842,-0.14295 0.38508,0.83815 7.9e-4,0.93388 0.3322,1.74338 1.71908,4.19958 0.94493,1.67349 1.90984,3.61821 2.14424,4.32159 0.6198,1.85984 0.41746,4.43126 -0.49312,6.26678 -0.72533,1.46209 -2.78752,4.03792 -2.43194,3.03768 z"
           id="path2251-6-3" />
        <path
           style="fill:#949494;fill-opacity:1;stroke-width:5.98366"
           d="m 129.59363,206.15624 c -0.0135,-1.25123 -0.2544,-2.21888 -1.03207,-4.14574 -1.28853,-3.19262 -1.41957,-4.32857 -0.64096,-5.55625 l 0.5873,-0.92604 0.23745,0.89437 c 0.13059,0.4919 0.7762,1.82161 1.43469,2.9549 1.52388,2.62268 1.80259,4.57692 0.91442,6.41165 -0.31379,0.64819 -0.77587,1.3632 -1.02686,1.58891 -0.42697,0.38397 -0.45748,0.3053 -0.47397,-1.2218 z m 4.85332,-0.28854 c 0.14435,-2.24921 -0.18356,-3.54928 -2.08414,-8.26297 -1.43689,-3.5637 -1.59263,-4.84559 -0.79874,-6.57444 0.50616,-1.10226 1.87663,-2.57724 1.54237,-1.66 -0.26972,0.74018 0.43382,2.54805 2.03601,5.23188 0.8253,1.38245 1.68747,3.15392 1.91593,3.9366 0.82301,2.81949 0.14203,5.801 -1.87688,8.21748 l -0.85743,1.02628 z"
           id="path2249-2-4" />
      </g>
    </g>
  </g>
</svg>
